<mxfile host="app.diagrams.net" modified="2023-10-26T21:47:44.472Z" agent="Mozilla/5.0 (Macintosh; Intel Mac OS X 10_15_7) AppleWebKit/605.1.15 (KHTML, like Gecko) Version/17.0 Safari/605.1.15" etag="RlrID4KwJkX5e3fP4EL8" version="22.0.8" type="github">
  <diagram name="Page-1" id="kN2Y6LsENimQDzfeYVQu">
    <mxGraphModel dx="2523" dy="1358" grid="1" gridSize="10" guides="1" tooltips="1" connect="1" arrows="1" fold="1" page="0" pageScale="1" pageWidth="1169" pageHeight="827" math="0" shadow="0">
      <root>
        <mxCell id="0" />
        <mxCell id="1" parent="0" />
        <mxCell id="lO10BH1AukQ4R_zcDMyx-1" style="edgeStyle=orthogonalEdgeStyle;rounded=0;orthogonalLoop=1;jettySize=auto;html=1;startArrow=open;startFill=0;endArrow=open;endFill=0;strokeWidth=2;strokeColor=#808080;" edge="1" parent="1" source="lO10BH1AukQ4R_zcDMyx-6" target="lO10BH1AukQ4R_zcDMyx-7">
          <mxGeometry relative="1" as="geometry">
            <Array as="points">
              <mxPoint x="670.5" y="819.5" />
              <mxPoint x="670.5" y="819.5" />
            </Array>
          </mxGeometry>
        </mxCell>
        <mxCell id="lO10BH1AukQ4R_zcDMyx-2" style="edgeStyle=orthogonalEdgeStyle;rounded=0;orthogonalLoop=1;jettySize=auto;html=1;startArrow=open;startFill=0;endArrow=open;endFill=0;strokeWidth=2;strokeColor=#808080;" edge="1" parent="1" source="lO10BH1AukQ4R_zcDMyx-7" target="lO10BH1AukQ4R_zcDMyx-8">
          <mxGeometry relative="1" as="geometry">
            <Array as="points">
              <mxPoint x="719" y="698" />
              <mxPoint x="719" y="698" />
            </Array>
          </mxGeometry>
        </mxCell>
        <mxCell id="lO10BH1AukQ4R_zcDMyx-3" value="Stations, Flights" style="edgeLabel;html=1;align=center;verticalAlign=middle;resizable=0;points=[];" vertex="1" connectable="0" parent="lO10BH1AukQ4R_zcDMyx-2">
          <mxGeometry x="-0.2781" y="4" relative="1" as="geometry">
            <mxPoint as="offset" />
          </mxGeometry>
        </mxCell>
        <mxCell id="lO10BH1AukQ4R_zcDMyx-4" style="edgeStyle=orthogonalEdgeStyle;rounded=0;orthogonalLoop=1;jettySize=auto;html=1;startArrow=open;startFill=0;endArrow=open;endFill=0;strokeWidth=2;strokeColor=#808080;" edge="1" parent="1" source="lO10BH1AukQ4R_zcDMyx-7" target="lO10BH1AukQ4R_zcDMyx-9">
          <mxGeometry relative="1" as="geometry">
            <Array as="points">
              <mxPoint x="860" y="840" />
              <mxPoint x="860" y="1158" />
            </Array>
          </mxGeometry>
        </mxCell>
        <mxCell id="lO10BH1AukQ4R_zcDMyx-5" style="edgeStyle=orthogonalEdgeStyle;rounded=0;orthogonalLoop=1;jettySize=auto;html=1;startArrow=open;startFill=0;endArrow=open;endFill=0;strokeWidth=2;strokeColor=#808080;" edge="1" parent="1" source="lO10BH1AukQ4R_zcDMyx-6" target="lO10BH1AukQ4R_zcDMyx-7">
          <mxGeometry relative="1" as="geometry">
            <mxPoint x="617.5" y="814.5" as="sourcePoint" />
            <mxPoint x="750.5" y="814.5" as="targetPoint" />
            <Array as="points">
              <mxPoint x="670.5" y="799.5" />
              <mxPoint x="670.5" y="799.5" />
            </Array>
          </mxGeometry>
        </mxCell>
        <mxCell id="lO10BH1AukQ4R_zcDMyx-6" value="Amazon API&lt;br&gt;Gateway&lt;br&gt;" style="outlineConnect=0;fontColor=#232F3E;gradientColor=#945DF2;gradientDirection=north;fillColor=#5A30B5;strokeColor=#ffffff;dashed=0;verticalLabelPosition=bottom;verticalAlign=top;align=center;html=1;fontSize=12;fontStyle=0;aspect=fixed;shape=mxgraph.aws4.resourceIcon;resIcon=mxgraph.aws4.api_gateway;labelBackgroundColor=#ffffff;" vertex="1" parent="1">
          <mxGeometry x="460" y="749" width="78" height="78" as="geometry" />
        </mxCell>
        <mxCell id="lO10BH1AukQ4R_zcDMyx-7" value="Lambda&lt;br&gt;function &lt;br&gt;Generate LLM Response" style="outlineConnect=0;fontColor=#232F3E;gradientColor=none;fillColor=#D05C17;strokeColor=none;dashed=0;verticalLabelPosition=bottom;verticalAlign=top;align=center;html=1;fontSize=12;fontStyle=0;aspect=fixed;pointerEvents=1;shape=mxgraph.aws4.lambda_function;labelBackgroundColor=#ffffff;" vertex="1" parent="1">
          <mxGeometry x="680" y="764" width="78" height="78" as="geometry" />
        </mxCell>
        <mxCell id="lO10BH1AukQ4R_zcDMyx-8" value="Amazon&lt;br&gt;DynamoDB&lt;br&gt;" style="outlineConnect=0;fontColor=#232F3E;gradientColor=#4D72F3;gradientDirection=north;fillColor=#3334B9;strokeColor=#ffffff;dashed=0;verticalLabelPosition=bottom;verticalAlign=top;align=center;html=1;fontSize=12;fontStyle=0;aspect=fixed;shape=mxgraph.aws4.resourceIcon;resIcon=mxgraph.aws4.dynamodb;labelBackgroundColor=#ffffff;spacingTop=5;" vertex="1" parent="1">
          <mxGeometry x="680.0000000000002" y="480" width="78" height="78" as="geometry" />
        </mxCell>
        <mxCell id="lO10BH1AukQ4R_zcDMyx-9" value="Amazon&lt;br&gt;CloudWatch Logs&lt;br&gt;" style="outlineConnect=0;fontColor=#232F3E;gradientColor=none;gradientDirection=north;fillColor=#F34482;strokeColor=none;dashed=0;verticalLabelPosition=bottom;verticalAlign=top;align=center;html=1;fontSize=12;fontStyle=0;aspect=fixed;shape=mxgraph.aws4.cloudwatch;labelBackgroundColor=#ffffff;" vertex="1" parent="1">
          <mxGeometry x="1001.0000000000002" y="1138" width="78" height="78" as="geometry" />
        </mxCell>
        <mxCell id="lO10BH1AukQ4R_zcDMyx-10" value="Client" style="sketch=0;outlineConnect=0;fontColor=#232F3E;gradientColor=none;strokeColor=#232F3E;fillColor=#ffffff;dashed=0;verticalLabelPosition=bottom;verticalAlign=top;align=center;html=1;fontSize=12;fontStyle=0;aspect=fixed;shape=mxgraph.aws4.resourceIcon;resIcon=mxgraph.aws4.client;" vertex="1" parent="1">
          <mxGeometry x="10" y="753" width="70" height="70" as="geometry" />
        </mxCell>
        <mxCell id="lO10BH1AukQ4R_zcDMyx-11" style="edgeStyle=orthogonalEdgeStyle;rounded=0;orthogonalLoop=1;jettySize=auto;html=1;exitX=1;exitY=0.5;exitDx=0;exitDy=0;exitPerimeter=0;" edge="1" parent="1" source="lO10BH1AukQ4R_zcDMyx-12" target="lO10BH1AukQ4R_zcDMyx-6">
          <mxGeometry relative="1" as="geometry" />
        </mxCell>
        <mxCell id="lO10BH1AukQ4R_zcDMyx-12" value="" style="sketch=0;points=[[0,0,0],[0.25,0,0],[0.5,0,0],[0.75,0,0],[1,0,0],[0,1,0],[0.25,1,0],[0.5,1,0],[0.75,1,0],[1,1,0],[0,0.25,0],[0,0.5,0],[0,0.75,0],[1,0.25,0],[1,0.5,0],[1,0.75,0]];outlineConnect=0;fontColor=#232F3E;fillColor=#DD344C;strokeColor=#ffffff;dashed=0;verticalLabelPosition=bottom;verticalAlign=top;align=center;html=1;fontSize=12;fontStyle=0;aspect=fixed;shape=mxgraph.aws4.resourceIcon;resIcon=mxgraph.aws4.amplify;" vertex="1" parent="1">
          <mxGeometry x="250" y="749" width="78" height="78" as="geometry" />
        </mxCell>
        <mxCell id="lO10BH1AukQ4R_zcDMyx-13" value="Amazon &#xa;Bedrock" style="shape=image;imageAspect=0;aspect=fixed;verticalLabelPosition=bottom;verticalAlign=top;image=data:image/png,iVBORw0KGgoAAAANSUhEUgAAAMgAAADICAYAAACtWK6eAAAABGdBTUEAALGPC/xhBQAAACBjSFJNAAB6JgAAgIQAAPoAAACA6AAAdTAAAOpgAAA6mAAAF3CculE8AAAABmJLR0QA/wD/AP+gvaeTAAAAB3RJTUUH5wQaChswj8nuQQAARLtJREFUeNrtvdd3Y0mWr/fFMfCW3pOZ9J5pq6qrR9M9LelKSw9X83dKS88y696Ze3u6qzodvU167wCQ8MAxoYcDgMyqLFYammQmvlosJh2OQfxOxN6xjVhNZCVVqlR5L8pdn0CVKl8yVYFUqXIFVYFUqXIFVYFUqXIFVYFUqXIFVYFUqXIFVYFUqXIFVYFUqXIFVYFUqXIFVYFUqXIFVYFUqXIFVYFUqXIFVYFUqXIFVYFUqXIFVYFUqXIFVYFUqXIFVYFUqXIFVYFUqXIFVYFUqXIFVYFUqXIFVYFUqXIFVYFUqXIFVYFUqXIFVYFUqXIFVYFUqXIFVYFUqXIF2l2fwNeAbduYpgmAqqqoqnrXp1TlmqgK5DOQUpLP5zk9jXF6eoq0bSKRKLV1tfj9PjStenvvO9V38BMxDZOzszNW3q4wPTXD7u4eSEl9fT29fb309/fR1NyEz+dDUaor2ftKVSAfiWXZpNMpdrZ3mJudZXJykrdv10in0yDB7XGzsLDA4OAgwyNDdPf00NTUiNfrrQrlHiKq7Q9+HwHYUpLL5Tg4OGR5cYmpyUkWFxY5OjrCluD1eJFSksvnEAgCgQBNTU30D/YxMjLCg4cPaGxswOf3V22Ue0RVIB9AsVgkEYuzsvKWN6/fMD8/z/7ePrlslkAgQF9/P729vSiqyuHBIevr6xwcHFIsFggEAjQ3N/Ow+yFDw0P09ffR3NyEz++rCuUeUBXIbyClxDJNUqk0W5tbTE9PMzM1w/rGBulUCp/PR1tbG6Njozx59oTOzk5UVSUej7Oy/Jb5uQW2Njc5PDgglUrhdnuob2ygu6eb8fExBoYGnBnF60PVqkL5UqkK5D3Ytk06nWZ3e4eFhUVmZ+dYXl4hkYjjdrtpamqkr6+f8fFxBocGaGhswOVyAY6Nks1kOD09ZWtrm8WFJZYWFtnfP+A8lURRFVpbWxkcGmBwcIDenl6ampvwV2eUL5KqQC4hpaRQKHB8dMTy0jJTk1MsLCxwdHRMsVgkEo3Q29vH8MgwAwP9dHV1Ea2Jvndg25ZFJpvl+OiE7a1tVlbeMr+wwPb2NtlcFrfbTXNzM329vfT19fKw+wGtra0Eg8Gqe/gLoiqQEoZhkDw/Z3Njk+mpaaamJtne3iGdSaOqKg0NDfT39zM6OsbAwADNrc34fFfvdUgpMQyDdCrN6WmMza0tVlZWWF5eZnt7m3wuj8fjIRqN8ODBA8bGRxkaGqK9rQ2vz48Qd31XqnzzArEsi0w6w8H+AQvzC0xNTrKyssJp7BShCCKRCK2trQwMDDAyMsLDhw+oqa3F6/Nh2/YHHEFimhaWaZEvFDg9PWVtbY2FhUVWlpfZ2dklnUrhdrtpbGpgaHiYP/3pT4yNjeL1eu/69nzzfLNzeXkX/OjwiKWFJWZn5lhcXGR/bw9b2tTX19PS2kJnZycDgwN0P+ymqakRn8+HUBWklEgpEb/7mBdomoamabg9bvx+H/X1dfR0d7M2NMTs7Cwry8vs7e2zsb7JyckpqqrS1NRIR0fHB7z+dd0QkLaNtCUSEEIgFOfjW+abFIhpGMRicZaXlnnz+g0L8wsc7B+Sy+UIBAP09vYwNjFG14MumpoaaW5uIhgMoigKpmVhWxYIgeADB48ApKQsllAohN/vp76hgd7eXjY2Nvj5p5/4j//4G2dnCTbW1zk5OaG1rRVNveG3yJLYBRMzXcA4z1HMFLClRHHpuAJe3EE3asCF0BU+9HK/Jr4pgViWRSqZZHtrm+nJaV68eMnG+ga5XA5F1WhpbeHp06c8fvqYh90PiNZEcLvdziAVYNm2M85xxPHBT/fS31xGVVWCwQCBgJ/6+jqkbbEwv0Ds9JR8LodRNEp/d0NIsPMGheM0ue0Eue0z8ofn5M9zmLZECXjxRPz46gP4H0TxPYiihzwI9dtSyTchEGk7u+BHR0cszM3x6uUrFheWODk5xTQtVFUlEgnz7Nkz/uUv/0LXg058fh+K6oSG2FJWBmtZFNe19BFC4Pf7qKuvx+/zIW0bIRSUm1zaSLDSedLrJ5xN7ZBeOqFwlMHKGtiWxFQUpKaRUlU0t4a3M0z0eQfRkWa89X4U/dsJmfnqBVIoFEjE4qytrTEzNc3MzCybG5tks1l0XcfjcWNZFpFIhL7+Pto72/EHfCAEUv7yES5uxrMkQFMV1JIghRDcmAtLgpUpkFo6IP73VVJzhxTjeVBU1LAPd40fPDpGzsQ8zWHFcmQyBmZeYmQt6p+04m8OIrRvYyb5agVimibpZIqNjQ1mpqeZn5tnfW2d8/MkXq+Xh90PcekuEokEicQZmqbh8/vQXfpvDE7HhrgRpDNLOUZ/6Rs3tLyShkVuM0bi76ukp/aQaRN31I/3YT2BnkbcLWGES6OYypPdSJBZOiF7lCG7lcKw9xG6hurV8dZ6vwmb5KsTiGVZZDIZDvb2WVpcYmpyiqWlRWKxGNKW1NbWMTwyTE9PD9lcjjdv3nCWTGFYJoVCHss0L7xTUpbGqfN/Z/Be/6iQF4dwvpaSG1GIBDOZJzu/T3ZuH5nM426uIfi0i/BEG56WCKrfBYrANi1CvfWkO2s4ebVPfPWM9GEWZf4Yb3MAV9CF6v76d/6/GoHIUrTt8dERK8tvmZ2ecbxTBwcUCgX8Ph/NLS0MDg4yMTFBU3MTG5ubzM3Pg5DkCzkSZ2dkMll8Ph+qriKlDUik7dgxKDcnEvilXXP9x7BNi8LROdnVI2Qsix7yEhxtoea7LjxdNSgerXJYBRXNr6MFXdhunYIpKG4kyOwnSW0mCHdEUF1f/yzyVQikWCxydpZgbXWVqckp5mbm2dneIZlM4nK5aG9ro6enh4GBAQYGBujq6kAi2dvfw7YtbNvCNEyy2Sz5Qh5bSmzbxpYWQoiLfQEENzYiRMm+EWUb5PoPYRcMsrsxcnsJhFDwPqgnNNaGpz3yjjgqKAI97CHcW0PuOEvhLEshkyN/kKaQyOGOfv1erXstEMuySKVS7O7sMDs7y9TkG96uvCURP0OgUFMTpavrAWNjY4yNjNLR2UFNTRSfz8158hzxzjJGYksbKW1k6d+2lCVJlDfMbm4wlF9ZSOGsruT1L7HsnEH+5JxCIoPq1vA8qMPbWYPi03/70hRwRdyEOkMk33qxMnmsZBEjXUTasiqQLxXTNNnb22dmapqp6UmWl5Y5PDzANAwCfj/Nza0MDg4yNjZOX18fTY1NeH0eFEUgS2Nd07VSLJWCRKH8A4HzFFeE4B1z4KYmj8r/y+K4gYNJkKaFlStiGRaq340a9qIEHJvjKhRdxRVyo/tdKEJFGhJZtG9ExF8a91IgUkrisTh/++vf+G//9u/s7O6Qy2bRdZWOjnYGBwYYGR2jt6+P1ta2yi64jXRmBVsgVA2v14dbd6GggC0cgVREUv63vFm3K5fNcQVR+biZ41k2WIBUlNKSrrScu2qsC1BUFUXVQKhIVKRQ+OoNEO6pQEzTZG93j+nJGbY2txFC0tHeTldXB4ND/QwNDdHZ9YBwJIqqaqUl08UIkEgUTcPr8+FyuVGEQtm7evlNL3uzbiUcSlTmrpsRhwA0BdWrI1wqWBZWxkDmTQi4rxzr0pQYGRMja2GZElTF2Sz8+vVxPwViWzbJZIrz8yQgaG9v57vvnzE+MUZHZzvRSASX24MQCpZtVYzsChIECqqqXhRSuHK1cPMjofwwr3x9A4dUXRreugC+iA87nie/E6Owf4YadCM8vzEUJBRTRZLbZ2ROUpjSRg1qaH79mwhkvJcCgdLTHXDpLlpaWxgYHKS3v59QKIRQlJKdW4pMfd8Ad7Y5sEoh6+WVRtn+oOLOvc1BIC59uv7jKh4df1MNufog6aMUmZVD9Pogit+Duy2C4lbfPawNVsYktXFGfOmYTDyD4tXwNPpwhd3fRF3OeysQRQgURaBqKv6An3AkgsfrRVwurSN+b7EikZZVCSkRyAvPliy5dm8r3FxcfL6p4yq6hqcpgq+9ltzqCWYsQ/LNLkJ3ER5vx9MaRHhLkQSWjZk2SG+eE5s8IL15hrRtvE1+gp1hXCH37d2bO+SeCkSWvEwqQjiRsbpL/6i6U+U31664qeSlCUO+8zs3jShtgIjLE8hNeIgUgRb1ERhpI7sTJ7V8SP7wHPsfmxTPcvge1KDVeEFVsXM2hdMc5xtxzrcSmDkTX1OAuuEGQp2Rb2IXHe6tQARCKO+sgR1xfPiALm/8Sem4K0Xpya0oykcJo5xWWywWAXC73ei6/vFXdMlTVk7GupE759HxDDQRzhYoqpBZj5M9SVJIFUiuHqP63QhFwS5KihmTXKaAicTTFKJuopmGsSa8dV7EN7C8gvsqkMueJenYGMonRdpKKNsgCHRdc4IVP0JopmmysbHBxvo6Qgj6+vtpb2//hMIL7y4Hb0ogCFDDXkKPO8HvQp/eJbN8SvE4h7GfwZZO4TsLMHWBVuMh0B4hMtxE7XAzvpZgNdz9S8exYQUSxwi3bbuUzPRxg8rZLXcEoqgqHq8Xj8fzwUITQpDP53n9+jX/7//9/6DpGv/7v/4rDQ0NnyCQy7PGDTsHBGhhL5GxdryNYdKdJ5xPHZJ/m0AmCqApaHVe/J0hvD21BLpr8beGcYU9TmbhN8S9FAhUcvqQ0imKYBgG8oOKKFwgJdilKHZVU/F4PGia9lFLLNM0OTw8ZOXtCh6Ph3g8jmVZH309ZbHf9K79pRuI4tXxttegh/3ofh9xY4N07hg16Cb8tI3Qk2bcrSH0oBtFV7+JfY9fcn8fB6Ule9kGyOdyWKb1we+hlKV4K9tyBrQAVdM+usB02W5RVBVV1VA/0oYpnY3zUZlBbjGEQxVoYQ/e9giuBj94FIRfw9cRJvCwBnetD8X1bYoD7qtAxLtGrWkY5HN5LPPjntxlh5UtbRRVQXNpH735JQBVUS4JQ3yaB+qdfBBuN85JgNQFti6QKqCXPtSbiSq+T9zfJVYlNENi2RaWZTqRuB+Y+CcEhMJhBoeHUDSnYENjYwPaJ5T/LC/3kE5w4+eP7TsIAlRwBKErCJcCuuKEon3j3FuBlFUgpRP2bll2aXddIj9AIUIo1Dc08Jf/8S88++45Xq+XxqZG1E/wPjk+T8fN/GmBje8a5TcdHPmbqIAmQBNI9Y7O4QvjngrkUkChLTEM07Ej5EXk7Yd4tHw+H+2dHY7KSrvXH2s/vHOU0pj63HF1J0Hkl6q2lFNSqtxbgTjI0n+2ZVU8WL8Xuf1LPr/rk3wnVOVzFu3l67mr0SlsibAlOJnGVZVwX410LsJD5KV3Udzw9sFvn05ZJOKSbfQpV1VaNt6BSIR0xOEEa95cPsp9454KBJwntw3SLoVmALJsLN/u6BI4A+yzRrUAKQSynDB1y+t/iUAKga0ooChV+6PEvRWIlBLbtiqVR8pLncoz+JZEIihFFasKSIltvzurfcorlnMKbxtbCKRSmsHs6voK7rNAAGlbOJG9737/hnLy3n8eUmJb9qVsxE8bWOUJSJFOfNiHtVa41itxZmNspLz84Pm2ubdGuiKEk/shHNduZY8OZ6lym9hcrOo+deISgFLaIHTc1uatXsPlYtyysrN/q6fwRXJvZxDbKj3hZDm7UKAI5faN25IWy36sz/H+SCmxkFjYmKb50bFln3ZQwJYIUyJKSq8sT6tmyP2cQSzTIpPNYBiG87XldHC6sZKdV2DbNpZpYttOTS27VFfrY5ESbJw6U7Zpko0lKJyeofn9l0qgln/511cpEOUiLO9HXHjJnNcQiHJIS1FSPMxgnReQhkTwbVQs+RDulUCklBjFIifHR+xs75BJZ5G2JJ3KcHBwyNHhIS6PC7fXe+NeGCklxWKReCxO6jxV8aQ5T/5PEYizWekSAvs8Q2JulYTtRbg8YJhYUArxd9aSlRmrtLaUpYQxuxIfIt6tP6c4HjJZifJ0ZlshBRiCYjxPYeccsiZYNtKynbXjN879EIiUGKZJMplkd2ub+dk5pt9MchZPYBomsVicmZlZFFXhUaFAV/cD/IHANWwCvu9UnOjhVDLJ3u4eszOzbG9vY9t2yZulfrKLVkjQbYGSzJKeXeNsO4PLEFA0sABbERcDHAVbKCCUUp0qFVs4ApDyQgzl37dFyY0rFITQsKXzM4EKQkOaYBcsLEWi2r7KLPjpboevgy9XIKXq6oZhcH52xu7uHitLy8zPzrK6uko8doZpGNi2JJVKsfJ2hfPzc05jMSaeTNDd00N9Qz1er9epkPi55yOdGsCJRJyd7R1WlldYWlxifX2do6MjNE2lqbmJxqbGUlbiR14ulWguFAm2aWJk8xhFiWKYJdukFBCJcGYEoWKXirg5/1YqIrHL1SJLM4wtqPxMoJVmGgUUFVtRsYUAVSBCLrRGH3rUi9CUb6F44pV8sQIpFgok4nF2trdZWlhkYX6Rrc0tYrEYlmVRW1dPc3MzhmFwdHxMIp5gc2uL+FmCtbVV+gb6GR0f5+HDh9Q31OPzeT/5yV4oFEnE42xvbjM/P8f83Dy7O7vEEzFMwyQQCjLSM8L3P/zAyPAwbpf74w5QWgtJaWNiIUI+QiPdRLr78as6wpLYpSrzF/aHMyPI0mwiy7PHpdmi7IMpL7WchCwBtlJZqoFAqoojEAWUgAt/Rw3+tiiKdm99ONfGFyUQKSXFQpFUKsnWxiZv3kyyMDfP3t4eZ4kzpIRoTZSH3Q8Zn5igu7sbwzR5u/KWudk5tjY3icedhji7ewfMLyzR29vLoyeP6Ovrpba2Bo/Hg/oBIe22bVMsFDg/T7K9vcPs9Axzs3Nsb21xdnaGRBIMBmhta2V4ZJgnT5/S09NLJBKptG774OuGUn1cgSFtlIifpmcjND5/hsftvjDSL+dT/dJ7RskIf6eDwkXEc+W33xeJWBEUCE2gunVUj1bdTecLEYi0bYrFojMYN7dYmJ9nYX6B9bV14vE4iqoSDIXo7OrkydOnjD8ap62tDX/Aj5TQP9DHxKNxZqdnePNmkq2tHdKZNCvLK+zu7rG5ucHA4ADDw8P09HRTW1uL2+N+r71gl84lkUiwtbHF4sIiS4tLbGxsOOeiCMLRMG1tbYyMDDM2PkbngwfU1NTgcrk+7QaIUvyTqji2hkvFXRfB3VCDqusXI1z8zovA72/E/NZrlI17Ud3/uMydCsTxShkkEgk21zdYWV5hZXmF9bU1YqcxJJJoNEpHVyfDI8OMjI7wsLubaE0UTdMq/vq6+jqi0QjtHW0MjQyzuLjE3Owcq6trJM4SLC4tsb+/z9rqGoODA/T399PZ1UltXa3TLEdVK8b3+dkZm5tbrCwvs7y4zMb6hrOskzaRaISH3Q8YGR1lYGCg1E7hM4Rx+V6Uw2OEQCjqRQG8ywNeXv0KH3igq39QFcc73JlADMPgLHHGzvYOS4uLzM3MsrGxSTJ5jmma+AN+uru7GR0fo6+/j86OTmrqanC5nYp+v4y1UjWN2to6QuEwHV0dDA0Psry8wuzMDG/frnB2ds7iwgL7u3u8XV5hYHCA3r5e2tvbCQYDFIsGJycnrK2tOY6At2vE4wksyyIUCvGg+yHDo8MMDA7Q2dFJOBLG5XJdS1BhpS2h7WzWiVJmYpW75/YFIiWZbJbtzS1mZ+eYm5ljY32d09MYlmUSiYbp7Oykf6Cf4ZERHnY/JBKJfljlRAG6rlNXV0ckHKarq4uBgT5mZ2dZXHCM/HgswfzcPPt7+7xdeUt3Tzc10RoymQw7u7tsbWxyfHSEaVpEohE6uzrpHxhgaHiIzgedhMMRXC792qNty4XrhBBIuxT0WFXJnXPrAikUi6wsLfNv/+W/MjM9y9HRCVJKampq6Ohso3+gj6HhYTq7OolGo5UZ42MQQqC7XNTU1hAMBmhrb2d0dJTF+UXm5+dLQomTiCfY2tjG5w9QyOdJJpNYllVyBDxgaHiQgcEB2trbCYfD6G795sIgJU7zTEVgCT4wcfgeU8rdvxzWcmutJj6CWxWIlJKzRILXL1/x97//RCJ+RjgSoa+/n4mJMfoH+mlta3Ge0u7rWb7oLhf19fVEIhE6OzsZHR9jeXGZ6ckpFheWiJ3GiJ0mUBSFYChIT28344/GGRoepK29jVA49EmlRD/63uBsXFea26jq1+lFkmCZEiNvU8haGEULKUHRBC63itunobkFN7DH+0nc7gwiJYl4gu3tHVLJFIFAkCdPnvCnf/lnevv6iETD6Pr1L1/AWXrV1NYSCjseqIfdD4j+l3/nr//9Pzg/TxKJ1vL9D9/z4z/9ge6ebsI3eC5X3R8hL2ptfW3YhiR7bnJ+mCd5lCedKJLPW9h2qXCf30Wo1k2k1U24QcflU+78GXGrArFtSSadIZPMIG1BMBCgv6+X4eEhwtHIrQxGTdOI1kTxeodIJlMsLi2RSieJ1kZ49HickbER/AH/rWf0CUCVzsfXFiooJRg5k7P9AkfLKY7fpkgdFyjmwJICKZ3wF0XN4/Kr1HR5aBv109jjxRfW7nQ2uWWBWGQzWbLZXKUCie7ScXluv9eE2+OhtraWaDTMtqbgdrsIR8N4P2PH/bOQTj5IuYDQ14RZsDndSLP58pST5Qy5uIltg+Zx4fHqCKFh5KGQkhSSFrlUlmzaoFCwaB8OEIhodzaT3KpALNsml8uTy+WwbacXuWndUt7De1BUUanFW0kWukPPUTlav9yG+mvAtiSp/TwHUwlOZpMUzizcPp1gi5dIux9/jRdFVcmemcT3Cpwf22RSNidrJpIsulunfUjB47+bx8at2yC2bTl9A6UjEGl9fFX26zmVd0sgXm6ncGcIiRTlmsF3c1+um0La5GgpzsnCOXbaIhj10DAYpmk0TKjFh+5TESpYRUnyyOR4zWBvOU/sIE9i32R/JUuoTkVvd6Nqtz+N3LKbV1zq7eEMUFt+/ECo1KH63Hm3XOWtFO17t8NRVvq3SymxTeve9yG3TUnmOEd8/Zz8aQ6P303TSIi2pzVEOn1oPuWdRjzusIqvVkf1Kpi2yXmswNlhnvi+i3C9jhq4/a5WtyoQcalnoBAX4RUfIxCjFCdVLBapqa3B5/N/8vlICVLIypJGys+rR/J5OA8MBZCFIoXzFGYqi8srf51RePmv3sn5vdzDjUvf/9WReGfC/EXT0I/agSmnEryTOCKQFhSTBom1FNmDAsIWhJo8NA6HiHR60QO/biOtuiBQr9DU7yKVcJPPFsknTc6ODXJpidvHrXe2ut0Z5HJXKKeY1KW7enVVQtu2yWaz7O7sMDU5SfL8nOfff8fg0DBu90eGl/NukYJ3vn9HxmD5LqiATOVJr+6QDa3h1j3OMhRAASkvRFAOb69kD1aySnjn+5R+Vo4IlpULLc+epXRdLs+m5Z9f3Bi7/Bo2lcYqTqmgcuKWqNQnswuQixc5fZuiELfRdI1gi49gswfN99s91hUNgnUadR0eTndynJ2aZOImuZRFqFZFveXW07cfalJpknmRj/B7JRGLxSLx0xjLS0u8fvWKqalpMpk0lmXR2NhIc0vrp53H5SqIpa65d0LpESwEaAhI5zhbWOf01EIxFIRhYguJVMqDvpQxeCkHRJYSpGyhvPO1IyQn38O+LChxkVBll3//UtZh+WvKvRxLv2chkLZAWE6JUltRkYqGrSpYQnGOYSlIQ8XOgZGWmBmBq0bFW+PBFfj9/uqaGwI1Gi6fjlXMU8hIijkLWzoPkNvk1gVyUVz60sD4jd81TZPzs3O2NreYn51j8s0kKytvSaWShCNBMtkshULhk89FEaUKhpJSj8M7Krh5SayKBEwb4yxNLndINmOhmCa26hR2o5xKK0piKGUYOhmEaun7wvk3Sin9wxGTJZzf47JIhChlJV4IwxFZWSAK5eSs8t9LFBS7XChCwVI0LEW99HMNbB3V0hC2DraCECqKrjlJWL9zk4UCqq6gKArSVrAMZ/f9g3tbXCN3Es1brj7itECT7/m5TfI8xcb6OnOz8yzMz7O2tu6EwEtJe0cHT5894bvvnxOtqf3k81BEuYqhIxZF3FHJTVnubOusXhS3TqClnnBTF0FDICwLSykJRFyk3ZaXNLYszRKlVgx2pThDaXCXPsopt07elDO4ncNfnnlEZca5vAyzuRAiUjglgsARpFL6QDjnIjWwNcwM5BImVsbGtgSFtIVRsNH9V4vEMiGfsTGKEqEqKJq4s666ty4Q27KxLbvSRUna8lLRNUk+n+f46Ij52Tl++vvPLC4uEY/HsW2b+rp6BocGefLsCY8eT9DY1PRZuRi2LUvlgpwIWqe34F2a6RITiRLyUTPaQ/2TpwRdHrAltigXdKPSqOfi7y5VOaHcvuDysvVSxmGF0nLrkk1y+bN8399eTtu9OJWS9028Y4NISyEfNzicT3C8nMYsWJztZsicBHCHVFT9/QqREnIpm9h+kVzaQnereAIqHp96J0vgO5lBKj3JVRVVVSrprYl4grXVNaanppmanGJ7e5t8Pk8wFOThw26ePH3Ck6dP6OzqxOf3OUlFn+gKdZZvZ5yfJzEti0wmzcnxCblsjkAweOv3pFwp0hICAh58XS24+zvB4zgghCzPBSV+cdnvfvmhA+lSFuH7fna5jNbv+VJ+6TmTAjNrId0WqUSexGaOxFaaoyUf7pBOoMGF8svRJ6GYk5zuFjnZypFPmeheCDdoBGo0lK9/HwQUpVwyVKAqKsWiwenxCflCjrmZOSYnp1hdXSMei+H1ehkY6Gd0bIyJxxP09vYSralB00un/RniOD48Ynl5hZOTU2zLJhaLM/VmivqGBvr6ewkEgh/dr/CTKT8whMBGYmsqitcNbg2pvVst8mbmtw/oyPUJr6oFVcKdfkJtHpIHefJnJgez5ygulebhEIE6F4ounA1SG4pZm9iuwd58nsSegWnYhJs16jtceIPqnax+b10g5SlaoJDPF1h9u0qxWCB2esrS0hL7+wcYhkFdXS3jExN898N39A8MUN9Qj8ft+axBK6WkkC+wv7fH61dvePXiJWeJM2zTJnmWYmpyGiEE52dnDAwOUFdfh35NWYO/c2KO67v0nyIUhKJSKWV6TxEKeGvdNAxGSR4WiW1mSO5lkVJQSJnUdPjxhDWEKjANm1TM5Gi9yMmmQT5t449oNPf4qGl1o7nuxsN4N0Y6zhMzl8uzuLDE6tsVMpk02VwOr8fH4NAgj5885tHjR3Q+6MLv9392+LdlWaSSSTbW1nn18hWvX71he2sHVdUIR7yYhkkinuAfP/2Do+NjdnZ3GRsfpbOri1AohPbRvQs/7n6UI19ExaN2u+/JTaF7VWp7g2TPixiWSeqoSPIwTT5dILaexhNxo7pUjIJN5twicy4oFCW+iEbroJf2QR/+8DcSrFgqLFNpl2yalvMEt028Pg+9vT0Mj47y6NEjevp6iUajF8upz6BYKHJUMvxf/eMlC/MLxOJxp8vt4BBt7W1k0mnWVlfZ3tpmYX6ew6MD1tZXmXj0iNHREVpb2m4s0rfiXL68JS1/wzS4bwjw1mi0PI6gegVHC0kS21nyyQL5pIlyWERoGpbp7K9oXo3aVhcNvV5ah71EWzTUm89X+01uN6MQ3rH2bFvicms0NTYzPDrMoyeP6RscoK6u7poKIkgy6Sxra2v846efefPqNTtb2xQNg+bmFp5//x0//PgDbe1t5HN53i6v8PLFS+bm5jg6OSIWj7G1tc3K8grPnj5leHSEurq6G5lNfnmld9ZO7gYQqiBQ78blrSXU5ON0Nc3ZToZs0sK0VUBDKBq6VyXU4KKm00NNl4tArXZnS6sytxzNe3kPRKIogrb2Vv7lL3/m6fOnNLe24vF4riWbzjIt4ok4s9Mz/P0//sbMzAzxWAyXy01fXy9/+OOPfPfD97S1t+Fyu5FSEq2N0treSkdXJz///BPr6+vs7exyenTC9sYWGxubPH/+nAfdD65l2fcOouSpKlU2uYsOUzeJUATuoEZdd4Bgg4dsIkQhY2KaIKWCoqrobgVPSMUb1tC9AuX2YxN/xR1tFDrF4txeL339fTz/4Xs6OjpQteu5I0bRYHd3hxc//4Of/vZ33r5dJZfLEolEGBkZ4cd/+iPjjyaob2ioVFkUQhAMBunt76OmrpbWtlZe/PyCqTeTHB4dsby0wulJjP3dfZ4+e8Lw6AjNLc3XUhOr7MWi1IK5vBT96hCg6AJvVMcT0ZD2JdurtK8plC/L/rr1YEVRju1B4nK7aGxooLa25trEAU7Nrc31Df7tv/xXVlZWAGhrb+fZ06f88OOP9A/2EwgG37uEU1WVhoYGQqEwLS0ttLW18uIfL1ldXeX09JSff/6Zg4N9Uuk0//znf6axsfF67BJFAVUgFefja0mYei/lcXAPUifvJFixPJ4URUHXP6De1cdelK4RDAbRXS7cHg+dnZ386c9/5rsfvqe1tQXXB0T/ejxuHvY8pK6+ju6ebl68eMGb12/Y3t5hb3+fk9NTjKJxrectFbAVp8PUp+TJVLl+7sSLVUl4qsTuXO9A0HWdB93d/Kf/9X9hcHubnp4exicmqKuv+6DC1WVUVSVaE2XiySOaW1voetDF69dvsG2bgcF+wpHw9Xm1BKUWBRK7FILjfP9SosVN6+Vyksjv5JR8K9xJZcWKPG6oUJgQgkg0wh//h38im80SDAY/y6h2uVy0trUSCoXo7evDMAyampoIBD49WevXt0WWisUJpGFSTGewc/lKyszlAu2l2/cbL8Sv7Bhn34lKNOyvXqv8q+Ii5uqd7+N4opwIiGu75HvBLReOu5wuC5V34gZUoqoqkUiESCRyLa+nKArhSJhQKOgYlYq49j0RgUCXAnmWIbm4SdpTi6q7kZbtBCuWwvF/nfDk/PXF57JCLonhUhMhKZXKz2TJHpSlxCcpQdii1LrXWfYJj4qrxounLoDu10utGr4Nbj+j8NK9tW1nOXGfpnCh3JADtlT2xyMFylmaxMsFTtaSCENBmBamUoqaVcr5GZcTpkqh7lxOlhKV8HWnh6EoJU0plZwOWxGVMHe7FOYOCkIqCEt1HmiagvRr+Dqi1I23EO6tRQ+7v77aRL/BrdsgopykxOVp/x4p5IaQSLCdYS5sSTGRJHO2Rz4nUS0bU5SLOpQz/9RLmYJOCzZZSXgSSOl8fTml1hbCyfoTCpZQL/I4KumyCkKqOFkyGlIKbKEidY3cYQ4rbSIQhAfr0IJ3uL19i9xBRqHz+cJQrwLlFZHEEhLL68LV0Yi7phXNECi2hZB2JdDzIuVWXBJFKU0WSt9TKw08nVgvWSpQ4cwatiIqvQmdmaMUHGk7fy+EirQEVl5iJk2MlMH50imKR0PxaoR7a1A8X8BO3g1z66EmFw6ry401qzIRgCIFlpQQ9FD7ZJCWp88I6m5EqY7YL519Fy2h302IkuLCxrj45VIEA1RmFBRRKbZQzlS8SMtSwAYraXC2GON0ep/8eZ74/DG4NRS3SrArguL6utdad+LFAolQnPwHcdmN+Q0jJCg2YIPu8xJ52Epo+GFpz0Z+WOpLxT37G/f0Pd6pX5b8+eVLyaKNpzEILoWTqQPy8TzxyUNUl4rq0fC3BBF3kMh0W9zJRqGUEmnbCMWJwanOIJciDKREaBqaxwOail0px/PRr/jZ5yQB3ArerhD1djumKYm9OaIYKxKfPMIVcKO6NDz1XoT6db6Htzo/lm3yi54pTpn/W8vc+41z+iIQClJRqHhYvyBXquJW8XWGqH3STLC3Ds3tonBYIP7mhPhMjGKieGmzBaQNtmljGzbSut+rgztt4mlZFoVCEcu07uT4pmFgWRaarn/UDvt1Y9s2+Xyeomlc6nH+ZaF5NULdUcy0jZkxOV85JbWVRHgPUb060YFaVK+KZVgU0gZG1kACmkdD9+voPhXNpdxJXvlnXfdtHkwIBY/bjcvlQkpJNpfj5PiYs3gcf8B/o1l7l5FSks1k2NnZIZVM0trWTmNT462LREqJaZokYnE21tc5TyYRiur0WX9fP/O7RIAr5CI6XINZKFIo5ElvnpPcOEPRXRTjFnrITS5TIBPLks8YSASqx4Un4ibQ4CXc7sVf70bzqPciUBFuWSCqplLf2EBrawu7O7tkMxneLq/w+uUrAJpamnF7PDd6DpZpcnZ2xtLiIn/7639wcnLMH378I3/6y5+JRmtu7V4YhkEymWRvZ5fFuXnevJzkLJZwercjkNLmLisFvxcBrqiL2rF6itkCZs6gcGxwthgnt5tH6gr5okGhYGJLBatUyE51aXiiLmp6AjSORoh2BfGEtHshklsViKIotLa18vjZY/b2dtne2mZtbY2iUeDo6IjHT57Q3ddLtCZ6A09zSTabY3d7h+mpKV7+4wXzC/OlMj8hRkZHCYfCJafBzWFZFufJJDvbTmrv3PQsm2sbJONJjKKFJhSkbZdqdH15CEXgqfPSMNpE/jDPUfIQK2OQz2UoIjE1UINuvCEvlq1SyJgYGZNCyiBzniOTzNOSMWnsj+CL6ogvfCvl1m2QUDjEs++ekc9l+dtf/87G+rpTNTGWYG1tnUePH/P4Uu2r68AwDKdqysIiL39+wdzsHAcHh5iWSWNzM40NjaiadqPPa8uyyKQz7B8cMDM7y/TUJBtr68SOTrFMC4/uQVPUL1YYlxGKwB3x4q0PILwaZq6IVCz0oE6oNUioK4q/IYBEkIkVON/LkNxPkzkvcrKUxDQAFFpGInhC6hfkKfk1d1AXS6GltYX/6T/9zzQ1N/PX//5XZqZmiMfjTL45Z3d3j62tbf74Tz8yNDJENPrpyVRSSjKZDFubm7x++YpXL16ysb5JOp3B4/HQN9DPH//5jzx79ozmluYbaZxpWU7buaNDJytxdn6OhYUF9vZ2sU2TmkiUtrZ2vC4vm6ub5E9PnTKoX3KXWwlG1iCTyGEWLaQGaq1G3WgDDSONBFqD6H4NFImZt8meFDleSLA7Hef8qEBsPYPuPyPY4MHl9/+6gNwXxJ2cmqo6tsj3P/5Ac3Mz7e3t/Pz3n9jY2GBvb49UKsXx8RGHh4c8efqU1rYW3B7PR0XPWpZFIh5nbnaOv//tb8xNz3J0fIyU0NDUwNjoGD/+04+Mjo8Sram5dnE4NbjyHB8ds7S4zNzMHMtLK+wd7JPLZ3G5dNofPOTps6eMjIyQiCU4iyU4PDpwwt6/UG0A2IZN5iBDajOJkTbw1LipHamj9Q8thNpDqB610v9FD6h4IjrukIZUNMyXcVLxHMmDPGf7OUJNHtzBL3eddafa9fl89A70UVNbQ3tHB3//W7m4QpyF+QXOzs44Ojzk+fff0dPbQzgS+V1Pl5SSXDbL3u4eU5OT/PzTT6ysrJBJZ/D5/HT39PDdd9/x+NkTOjra8fp81xq2LqWkWCgQj8fZ3NhkdnqG6alZ9vYOSKfTaLpGd083oyPDjI6P0dffR01NDW8XV3C5XRimiWWbpSjnL8xIL1HMFkntpzDjRVyKRrg1QtNoE8G2IKpXgV+4F4QGvgYXjUMRMjEbsyAwMzbn+1kKfQHcgS93mXXnk5umaTQ0NfKHYIC29la6e7p5+eIFq29X2d7aJJVKOjPJs6eMjo3R2taK1/v++lSmWbI1lpZ59eIlczOz7O/vI6Wko6OD8Ylxnj5/Tv9APzW1tdfsVpYUCwZnZwm2NjaZm51naWGBra0t4okzVM1Fe2c7Q8ODTDyaoL+/j7r6usq16G4Xqq4hhcSSNtK2PtiLdavBOlJiZA1ysQx2wcTjdxNpCRNsDqJdEbyoaIJgo4vaTj+p/TypWI7MSZFC1nSiB77QKfPOBQJOmIU/EKC3v4+6hno6Ojv421//g5npKWKxONNTk5wcH7O7s8vTZ0/pH+gnEr3wdNm2TS6bY3d3h8nXb3j54iXra2ukUin8fj99/f189/13TDx6RMsVAvsUpJQUi0VSySR7u/ssLy0xNzPL6ttVEvE4ulun60EXXQ+7GRkdYWh4kObmJrxe77vLulKMmiJAGCZGMo2dyiI8Thi8fE+4iUS8I45Kl6hfZB1eig917BpVcfZaPmW3XoI0bayCiW2ZqEEXnqinlEh11ZsMmk/BV6vh8qrYRUkhZTo2jPxiJ5AvQyCVk9E06uvrCXz3nIaGBto72nn96hUb6xtsbm4Si8XY292tDPam5iZUVSWROGN15S2vXr5kanKS/f0DhICW1lYmJib4/g8/0D8wQCQauVb3sWmYJJNJtre2WFpcZmVlhY21DU6Oj7Ftm9r6egaHB3ny9Ck9vb00NNbj9/vfcw4XnW1VCWQKpFZ3yQTeouseKFrYyqV+hJezByvNcMrZgRcdoSq9REp/ZisC6dLQgh5ctUG0sBehfZzt5QQxChRVIFUJmkS4PrBCiQJCdzLDpC2RplO0+kvmixJIGa/XS09pCdLZ1cXPP/3E9OQUx8fHTE85n3d2dhkYGMDlcrG7u8vczBxv3zrdpwIBP9093Tz/7nseP31CW1sbHo/72rxCtmWRyWTY291ncX6BqakpVldWiccTSFsSjoTp6e1h7NEYw6PDdHR04PcHUNXfGEVlc0NKdKEgMgWSixvEYxZqUUDBwCql3FZC3IVw+hWKX7RdK2UaIlQnvkuW8kGEwFYF0qOj1YUIDLURGm1Dj/o+6r4IAUJTUD0qilvBRmLmDayijSKvtiXsoqSQsTAMC6GA5lZQtS+rDtYv+SIFAqCpKrV1dTx59pT6hnpampt5+eIla2tr7Gxvc544Z3pyGlVRSWfSnJ8lsW2LttY2xh+N8+z5c/oHB65101Hajtv4YH+P1bdrzM3NsTC3wOHhIcVCkWAwSHd3D6Pjo4yMjtD1sItwJIyuf2D2nShVdjdtimcpsoVjchkLUShiVgQCVBKmLrIKZTmVVlEqPyu3awNR6i8isFWFfMiHLSXu5jBayPuR4eoC1aWiB9wIXcHIFsmeZCic5dEi2m++lrQgFzdI7uUppAxUt8BX40L3al+uO5svWCDg2CY+n4+enl5qa2ppaW3l57//xNTkFLHTGMnzFKLU79Af8NPTM8DzH57z5OkTWtvb8Hyka/i3kFKSz+U4OT5heXmZqTeTrKyscHhwRCaTwefz0T/Qz9DwEI8eP6anr4doNPIRrRNEpZialICu4W2oJdDUgc8UYJiY5cIKpRx+pwHnRbNN+1LvQlnpZegkTgkJomhjJ/MUTjMYZwWs0wxWtuAYyB/1poDm0/HW+1HcCtlYmvP1BP62IHrUjTvq+rUtYkMhaRJbTRNbTZE/L+AKKQSb3Lj9d1e5/UP4ogVSOUldo76hnu//8ANNLc3U1tXx13//K8elfY1QKMjY+Dh/+pc/MTI2TOSaZo1yS7jY6Slrq2vMTE8zPzfH9tYOmUwGj8dL14MuRkZGnMLb/X1O4W33RxbeLjXwlEBBWoigl7rxPhoePyWou0Ha/HKpXrY3LrdIqyQxi5JBXzI+hA0ia5JfPyH28yrGfgLFBMX+tKalmkcl2BrA3xogc5AitZfi+M0RwqUR6YvijrgqzTqlCYWkQextmsOpOMmdNLZl4K3zE2n34vZ/2UPwyz67ywiB1+ejr68Pr8dLsVDkv/37fyeTztL14AF//sufefzsMYFg4LMPJZEYRYN4LMbqyltmZmZYmJ9nY32DdCqN1+ejq+sB/QP9PH76hKHhIRoaG3C73Z81Y9nS6VEo/W58Xc14BjsRpSqQ6i/TbS8dRvyyMMwvir4JQOQspEtD2ThCHp+X8nA+bXNUqAJfo5/GiWYK8QKp9RTxlQTFgiR5kCXQHsQVdqMIhWLaIrWTI7aW5Hw3i22YBFvcNPaHiLT50NxfdsTi/RFI+YR1ncbmJnr7+pianMYoGjQ3N9HxoAP/NRRyMwyDRDzO1sYWCwvzTE1Osbq6SiadweVy0d3Tw9DwMCOjI/T29dLU3IzP57uWpC8BTlkfTUN43KBrSE393Q3D39sDcTIDQXo08OigqxezzKe+Dz6N2pF6rILNntgjuZUmsZEkeZJHr3XjCnlRFZ1C0iQXNzBzFlIFf7Ob5vEamkdq8EVcX65/t3ydd30CH4uUEkUouD1udE1DUZx/f24/EcsySacyJY/YLFNvpthYWyd+lsC2bRqbmhgeHubRk0cMDAzS2NSI1+e9PrdxyYiu9GsvFV64rt10KSRSAak6H6Xe158+QAW4I27qJxpQXDrH06ecbyTJJYsUdi2EVkTBhWU6AnWHXQQ7vNQOBmkcihJs8jj9Cb9w7p1A4FIggwDE5+3CWqZFNpvl5Pi40mF3YX6B/b19TNOivqGent4ehkeGGBkdob2zg0AgcO3h+KJkh1R6FV635SoEUnXq/zrpvGX749OPIxSBp9ZDw0Q93jofibVzkntpCikDyxBgqaiahiuo4W/2En7oJ9zhwxPR701m4b0UCJRbSb/7vY8JWSinuR4eHLKyvMLK0gpvV96yvblNNpclFAzS+aCLR48fMTYxRlt7G6Fw6MNdth9/RaWLcD4p4tMM6KtwyouCVJVKhcbPPmtF4ArpRPvCBFp85JNFjIyJVbCRlkDVVVx+DT2k4wqpjs1xP7QB3GOBXK4IX66S8qFYlsXx0THzs7PMzMywOL/I4cEhuWwej8dDb18v4xNjjI6N8rCnm9raWnTXTVcSlJX/bozSXgqKAPXzbJBfvq6iC9wRF66w7uyOX26Mo4p721LufgpElqujiEru9se0UMjn8szNzPB//R//J+sbGxTyhVIF92bGxyeYePKY3r4e6hrqr20v5QMuCSlsbMVGihsITio3rRGAbYO0HcfCdR7nHjXG+VDup0BEuae4Uv6iVJaTD3rDnaINWY6PT8jncrS3tzM4NMTI2BgjoyO0tDr5JzeRQHXVNdmKRArb+eCaaxaXX86WYFjOZ+U969Qq73A/BcKl1smfgMfjobe/jx//6Z9IJOKMj48zNj5Oc1vL9Tfn/GAuL7HkpT4q13kEnKJb5eY8X9GT/qa4twJ5Px82hWi6xoOHD/nP//qfKRQKNLe2lAo23N2IuVy3+Eae6cIx/BXh1NwVUqLI63cEfG3cT4G859HqpEJ8+Nvt9XnpevjA6cuhKZ81I10H5VSN37i8z399SyIKNsKwwbKReROZLYJpg+vLTXm9a+6nQAQlQ/Zy776PH+B3WU3xSq5xJpElMVgnafIbp1gnaRRTYsQzZNaOEVEfroYQikf7pjpHfSj3UyAlnMBW+aG2+T3jM/2iUmLnDIxYisJOnMLqKfnlI8zdMzRDYsbSJF6uU8gU8Pc34+2sw1XrQ1Rnk3e4vwKpdKYSpSb0d71I+szLoSx4h9/oSvDBL2anCmTXj0jP75BfPcLYOcNK5JBFZ3PCKhQx1k4pxLKkN2IEhloJjbfh66hB9d7fYXHd3Ns7UR5Qzo56qa3bPXdZvjNnfE5UcL5Ibu2Q878vk57bxj7Loao6en0A4fdg6xqKaSOzJmYyT2bhkPxJFiNtgA3+B7XfRPeoD+F+CqS0Megk+4jShtf9F8e1TIGWTWE/wfmrt2Qn1+Ash6sugq+/DW9PE2pdEFwadsHEPM2SeXtMcv6Q4lGG5NQuqkdH9brwtoW/6sY4H8q9FIhEYtv2O7vn93uBVb6Cz7wGCXa6QGZll8zcFnY8g7shSvBpN4En3eidtSh+N6gCadlYaQNPaw2ax8v51C6FWI70wiHuugCuGi9ayH3XN+XOuZcCAaeFtPPZplgoYBjFL7q+0u9yHadt2xiHCbLz25iHZ3gifgITDwh+14frYR34LvIvhKaguTRUj46ialimxJzeobB/TnrtmEBfHarf9dV2jvpQ7udeammJZds2xWKBw4MDNjc3SSaT2B8RtPg5WKZFIV/ANM1r27f4bHEbFsXdU4prh5Av4GqKEBjpwNVV+444Lg4Iwq/hehjBP9qEqzkMpsQ4zVCMZZB31NjoS+JeziCKquDzedE1jWLRYG1tnX/7//4r2UyW4dFh6uvrcX1m+utvYVs22VJp0+PjI+rq6uh6+ACv13vXtwVZNLHjGUQyh6oouOqCuJrCCJ/rnRTdX91Pn46nPYKnNULhJO24h5M5bMNCcd/LIXJt3Mur1zWd5pYWOro6OT45IZVK8ebNG05jJ+xsbTH2aIKH3d2Ew2E0Xbu2yibFQoGT41OWl5eZfDPJ7s4OfX19/G8+Hx1dnZ91nIoXrvLxsSfoVDyURRPVlgiXhh7wInyu390AFKpAC7rQoz4Ul+4stwpGKWbr2+5CfC8FoqhOC4U//+XPeL1e5mZnOTx0yn4eHR6ysbHFxKNHDA4N0NbRTjAU/Kxdc9M0SZ6ds7W5xcz0LFNTU6ytrZHL5ZASnn//nNb2ts+q9Xs5i7Dc8fYjX8DJGhRg43j4bOk4Mn53eJc2YEQ5TlIoUGm/8O2KA+6pQAB8fh/jj8dpaGzgYfcDXr96xfLyErHTGG9evWJny+ng9PTZU0bGRmhsavzoFgq27SynDvb2mZ9bYHpqmpXlZU5OThFC0NrSSndPD8Fg8NquS/zi80f9ra6Cz4XlUpHJAsVECiuZQ2kMw1UlRi2JdZ6jeJrGyhloNW5Un/vqv/lGuLcCAadEaeeDTmpqa3jwsIvJN294/eo1m+ub7OzucnziFLxeX13j0dPH9Pb3UlNb+0Fps4V8gZPjE5aWlph6M8niwiIHBweYpklNbQ19ff08fvK4kj9yHXFd5Uzxjw28rKCraHVhlNoQxlmW4l6CwuYJWlMEJex9f2tpCXa6SG4zQXY7hpEv4PZHcUe8Tm2rb5x7LRBwAg4j0Qj+gJ+GxkYePOzmzavXzM7Msre7x9uVFQ4PDllbW2f8kZP30fWwi0gk8t7OVaZpkognWF1ZZXpympmZGbY2t8jlc4RCQQYGB3j85DFjE2O0d3QQCoWuTRxKSR7iE/dEhK7iaoni6mzA3EtgHp2TntpAiQTw9DejhD0IVblYNNkSK10k+/aU89l98odJhC5wNfhx1/hRPrGz19fEvRdIGV3XaWxqJBwJ09nVycDgIC/+8YK5mVlOTk6Znppmc3OT+bkFnjx9wtjEGB2d7fgDAVRFwbJtMuk021vbTL6e5PXL16ytOi0UXG4XDx50Mf5ogqfPntDb10s0GkW7zgIOpeW+tJ3K55+EItAbwvgH2ii8PcDYipGZ30EKBTOdx9PThFbjR9FVbMPCOMuS3Yhz/maX5MIBpmnhf1hPqLcRPez5GiNAP5qvRiAACIHH66W9s4O6+noedD+gt6+XVy9esry8Quz0lLPEGZsbGywsLPDDH75nYHCQQNBPKpViZWmFn3/6ifm5eWKnMZBQ31DPyOgoz757xvBoyZZx38AO8zvVEcVH5dhfRvG5CQy2k98+JZnKU4ylsF6vkz/J4OmL4emoRw94MJM5shsnpNdPyB6kKBo27o5aIo87CPU1oHq+rqHxqXyVd0EIgc/vo7u3h7qGBnp6e3j14iXTUzNsbm5yeHjAefKc3d1devt6qampIR6Ls7mxwe7eLvlcjmhNhN7eXh4/ecL4xARtHe34/L4bS8etRPOWc0E+9emtCFxNUaJ/HEIAyddrFA7Oya3sk95PoUX3EG4VO19EnuUoZgoYLg1XVz3R7x4QedSGXuut5oaU+CoFUkZVVWpqovgnxmhpa2FgaIjXL18xMzPD/v4+62trHB8f4/V4KRQK5PN5NE0t9RZ5zvPvvqOjs5NgKHjN7drexbZtCvk8xWKhEiFgfU5EgEvF87CRqEdHawyTmt2hsH2GdW5SPEpgShuhgsuto7UEcHfVEXn0gPBwK57G4Ec31fma+aoFUsbtdtPc0kIkEqWjs4O+/j7+8Y9/MDc3x1nijHQqhRAKqqoSDEUZGRnlDz/+SG9/H263+5OXO7+HlBLTMDk/O2N7e4dU0mnnwEfW+Xofwq3h7qhDC/vwPWyhuBmjsHNG4TSJYZioHg1XjR+9JYK7qx5vew16yIu4w7z8L5FvQiBwsezqethFXX0d7Z0dNLc08+IfLzg8OKRQMLBt6cRYFQqkkilSySTKB3TW/RQMw+D8/Jz93X1W377l9avXxGIxXC6dcCTsFMT+zAgAoSpoNQG0kA9vZx3WeR4zlUMaFkJXUX0ulJAX1e929lCqq6pf8c0IpIyiKITCIYZHhojWRGlpbWV2epbNjS2Ojo5IpVJMTU6TTmcY3tpiaHiQtvYOQuHrcedalkU6lWZ/b5+5uTlmp2fY2NggdhrDMAy6upxyp03Nzddn72gKStCDEnCj26GLppmKqNoav4NYTWS/2VgCy7JIJVMcHBywvrrOzPQMc3PznByfgIDamgjdPd1MPHrM2PgYre2tn/xktyyLbDbH8dERy4vLTE9Ps7i4yMH+AUWjSDQapa+vj6fPnvL8+TPa2tvR9G/u+fXF8U0LpIxpmuSyOfZ29nj16jWvX75ibW2d5Pk5qq7S2tLC6NgoT54+YWBokLr6Olwu1we9trRtcrkcBweHvF1eYWlpmaXFJba3t8nlc/j8ftra2hifGOf582c87H5IOBR+7yZmldunKpBLWKZJPJ5gZXmFVy9e8eb1JDs72xiGQSDg52G3492aeDxBZ2cnwWDwNweylJJCoUDs5JTV1TWmJ6ec3f29PbK5HC63m/aOdkbHRhkfH6Ovr4/6hvoPFl6V26EqkPdQKBQ42D9kdnqWVy9flaKFD1E1jeamJgYGBxifGGdweJC2tjYCQb/Tzqx0J4vFArHTGOvra8zNzDE3O8/W5haJRAJN02huaS5tPj5ncGiAurq6z27fVuVmqArkN7Btm2wmy97ePpOvJ3n54gVvV96STCZxuXQaGhoYHBzk2XfPGBweoq6+DkUIkudJdra3mZqaYnpqkq2tHZLnKXRdp6Gxgb6+PiYeTTA4PERzSwterxelaih/sVQF8jtYlkUqlWJjbZ1XL18zNTnF1tYm2UwWn89PR2cHExMTDA4NomkqWxtbLC4usLKywvHRMaqm0trSysDQICNjo/T199HU3ITP5/tyKztWqVAVyAdiGAaxk1OWl5Z5/fo1C3MLHBwcUSwUiUSjtLe3oakqx0dHxGIxLMsmEgnT09vDk2dPGB4dprG5CZ/Pj1rdjLs3VAXyEUgpyedyHB4csjC/yJs3kyzOLxI7iQMXFVVCoRA9vT2MTYwxODxAe0c74XDVM3UfqQrkE7Atm3Q6XUnBnZ2aZX9/DykFdfV1DA4OMPF4nIc9DwlHwmja9eTFV7l9qgL5RKSUGIbBWeKM7c1t9vf2sG1JfUM97R0d1DfW3Vr7tio3R1Ugn0k54LBYdArX6S4dXdfvqEtVleumGsvwmQgh0F06LpfrZjvUVrkTqo+5a6Iqjq+TqkCqVLmCqkCqVLmCqkCqVLmCqkCqVLmCqkCqVLmCqkCqVLmCqkCqVLmCqkCqVLmCqkCqVLmCqkCqVLmCqkCqVLmCqkCqVLmCqkCqVLmCqkCqVLmCqkCqVLmCqkCqVLmCqkCqVLmCqkCqVLmCqkCqVLmCqkCqVLmCqkCqVLmCqkCqVLmCqkCqVLmCqkCqVLmCqkCqVLmC/x/JQQlvQActcQAAACV0RVh0ZGF0ZTpjcmVhdGUAMjAyMy0wNC0yNlQxMDoyNzo0OCswMDowMMs7PCAAAAAldEVYdGRhdGU6bW9kaWZ5ADIwMjMtMDQtMjZUMTA6Mjc6NDgrMDA6MDC6ZoScAAAAAElFTkSuQmCC;" vertex="1" parent="1">
          <mxGeometry x="990" y="749" width="120" height="120" as="geometry" />
        </mxCell>
        <mxCell id="lO10BH1AukQ4R_zcDMyx-14" value="" style="endArrow=none;html=1;rounded=0;entryX=0;entryY=0.5;entryDx=0;entryDy=0;entryPerimeter=0;" edge="1" parent="1" target="lO10BH1AukQ4R_zcDMyx-12">
          <mxGeometry width="50" height="50" relative="1" as="geometry">
            <mxPoint x="260" y="788" as="sourcePoint" />
            <mxPoint x="310" y="738" as="targetPoint" />
          </mxGeometry>
        </mxCell>
        <mxCell id="lO10BH1AukQ4R_zcDMyx-15" value="" style="endArrow=classic;startArrow=classic;html=1;rounded=0;entryX=0;entryY=0.5;entryDx=0;entryDy=0;" edge="1" parent="1" target="lO10BH1AukQ4R_zcDMyx-13">
          <mxGeometry width="50" height="50" relative="1" as="geometry">
            <mxPoint x="760" y="808" as="sourcePoint" />
            <mxPoint x="810" y="758" as="targetPoint" />
          </mxGeometry>
        </mxCell>
        <mxCell id="lO10BH1AukQ4R_zcDMyx-16" value="Apply Rules&lt;br&gt;Get Selected Flights" style="edgeLabel;html=1;align=center;verticalAlign=middle;resizable=0;points=[];" vertex="1" connectable="0" parent="lO10BH1AukQ4R_zcDMyx-15">
          <mxGeometry x="-0.1305" relative="1" as="geometry">
            <mxPoint as="offset" />
          </mxGeometry>
        </mxCell>
        <mxCell id="lO10BH1AukQ4R_zcDMyx-18" style="edgeStyle=orthogonalEdgeStyle;rounded=0;orthogonalLoop=1;jettySize=auto;html=1;entryX=0;entryY=0.5;entryDx=0;entryDy=0;entryPerimeter=0;" edge="1" parent="1" source="lO10BH1AukQ4R_zcDMyx-10" target="lO10BH1AukQ4R_zcDMyx-12">
          <mxGeometry relative="1" as="geometry" />
        </mxCell>
        <mxCell id="lO10BH1AukQ4R_zcDMyx-19" value="Text" style="edgeLabel;html=1;align=center;verticalAlign=middle;resizable=0;points=[];" vertex="1" connectable="0" parent="lO10BH1AukQ4R_zcDMyx-18">
          <mxGeometry x="-0.268" relative="1" as="geometry">
            <mxPoint as="offset" />
          </mxGeometry>
        </mxCell>
        <mxCell id="lO10BH1AukQ4R_zcDMyx-22" value="Lambda. &lt;br&gt;Fetch Flight Data" style="sketch=0;points=[[0,0,0],[0.25,0,0],[0.5,0,0],[0.75,0,0],[1,0,0],[0,1,0],[0.25,1,0],[0.5,1,0],[0.75,1,0],[1,1,0],[0,0.25,0],[0,0.5,0],[0,0.75,0],[1,0.25,0],[1,0.5,0],[1,0.75,0]];outlineConnect=0;fontColor=#232F3E;fillColor=#ED7100;strokeColor=#ffffff;dashed=0;verticalLabelPosition=bottom;verticalAlign=top;align=center;html=1;fontSize=12;fontStyle=0;aspect=fixed;shape=mxgraph.aws4.resourceIcon;resIcon=mxgraph.aws4.lambda;" vertex="1" parent="1">
          <mxGeometry x="460" y="480" width="78" height="78" as="geometry" />
        </mxCell>
        <mxCell id="lO10BH1AukQ4R_zcDMyx-24" style="edgeStyle=orthogonalEdgeStyle;rounded=0;orthogonalLoop=1;jettySize=auto;html=1;entryX=0.5;entryY=1;entryDx=0;entryDy=0;entryPerimeter=0;" edge="1" parent="1" source="lO10BH1AukQ4R_zcDMyx-6" target="lO10BH1AukQ4R_zcDMyx-22">
          <mxGeometry relative="1" as="geometry" />
        </mxCell>
        <mxCell id="lO10BH1AukQ4R_zcDMyx-25" style="edgeStyle=orthogonalEdgeStyle;rounded=0;orthogonalLoop=1;jettySize=auto;html=1;" edge="1" parent="1" source="lO10BH1AukQ4R_zcDMyx-22">
          <mxGeometry relative="1" as="geometry">
            <mxPoint x="680" y="520" as="targetPoint" />
          </mxGeometry>
        </mxCell>
      </root>
    </mxGraphModel>
  </diagram>
</mxfile>
